<?xml version="1.0" encoding="UTF-8" standalone="no"?>
<!-- Created with Inkscape (http://www.inkscape.org/) -->

<svg
   width="219.1095mm"
   height="202.78169mm"
   viewBox="0 0 219.1095 202.78169"
   version="1.1"
   id="svg1"
   xml:space="preserve"
   xmlns:xlink="http://www.w3.org/1999/xlink"
   xmlns="http://www.w3.org/2000/svg"
   xmlns:svg="http://www.w3.org/2000/svg"><defs
     id="defs1"><linearGradient
       id="linearGradient20"><stop
         style="stop-color:#e78a40;stop-opacity:1;"
         offset="0"
         id="stop20" /><stop
         style="stop-color:#e78a40;stop-opacity:0;"
         offset="1"
         id="stop21" /></linearGradient><radialGradient
       xlink:href="#linearGradient20"
       id="radialGradient21"
       cx="93.782814"
       cy="226.6418"
       fx="93.782814"
       fy="226.6418"
       r="75.026253"
       gradientTransform="matrix(1.198343,0,0,0.30141325,-18.478893,154.68185)"
       gradientUnits="userSpaceOnUse" /></defs><g
     id="layer1"
     style="display:inline"
     transform="translate(4.5720259,-53.602786)"><ellipse
       style="fill:url(#radialGradient21);stroke-width:0.281343"
       id="path20"
       cx="93.90509"
       cy="222.99469"
       rx="89.907181"
       ry="22.613907" /><path
       id="path10"
       style="fill:#f78a36;fill-opacity:1;stroke-width:0.264583"
       d="m 27.149252,64.799662 -2.165759,4.077271 -0.127641,21.913391 7.38973,9.682616 12.485543,0.76429 5.605342,-4.204393 4.586801,-10.065019 -1.01906,-6.242513 -7.134965,-8.281148 -9.554972,-4.5868 z m 147.915048,10.065019 -8.02638,3.4401 -3.31246,6.497278 0.3824,7.38973 3.94963,7.006807 11.9755,1.910994 10.95695,0.51005 4.45916,-2.675809 -4.96869,-15.543237 -6.11539,-5.860624 z m -57.18876,1.182357 -17.909547,12.674678 -14.879192,-2.479435 -11.847856,3.030823 -15.154113,13.225546 -17.083195,22.04259 -8.541598,18.46088 -3.306258,23.97115 2.204,6.3376 125.368099,-0.55139 18.46038,-15.15411 5.51077,-6.3376 1.10226,-10.7456 -6.88847,-15.7055 -12.39873,-6.06164 -14.87919,-0.27544 4.40852,-19.838583 -7.43934,-16.256372 -9.36791,-6.061645 z m -99.262201,26.464022 -21.0214605,5.98826 9.0454428,17.07183 10.7021927,6.11539 9.300209,-1.01906 5.351094,-6.24303 0.127124,-6.62492 -0.764294,-9.55497 z m 135.642411,118.31215 -4.9196,2.3363 v 4.91959 l 4.67362,2.2133 5.41104,-1.72134 v -4.79661 z m 20.41478,3.68918 -6.27197,2.33681 -0.12299,4.30413 3.5667,2.58279 5.16506,-0.61495 2.4598,-2.82877 0.12299,-2.45928 z m -108.77245,2.11924 7.119174,4.09279 11.781709,-0.56121 3.225643,0.42116 -5.189347,8.6956 -6.1712,2.52491 2.384351,1.54306 8.134904,-1.82366 7.013009,-9.39736 8.274957,10.37921 h 7.43369 l 2.10426,-2.24431 -5.89112,-1.26194 -2.10376,-2.38435 -1.40251,-5.18986 19.47499,-4.12847 -27.294087,-2.28353 z" /><path
       id="path11"
       style="fill:#9c4114;fill-opacity:1;stroke-width:0.264583"
       d="m 140.52222,81.13665 c 0,0 8.33726,28.46941 -25.21551,53.88818 -33.55283,25.41877 -49.210998,27.65568 -49.210998,27.65568 l 17.691427,9.15035 23.588781,-9.96374 1.58079,-1.80144 6.88226,5.22552 0.48421,11.62358 43.51724,-6.1004 19.3182,-14.64148 1.82987,-17.89452 -6.10041,-13.2178 c 0,0 0.81344,2.43996 -2.03346,14.23428 -2.8469,11.7943 -16.47133,15.65793 -17.69143,16.87804 -0.89869,0.89868 -1.35359,-3.48377 -1.53221,-5.86269 -0.12798,1.00982 -0.68213,2.41253 -2.53473,3.82922 -3.45695,2.64356 -4.06722,0.6103 -17.08164,0.6103 -3.16393,0 -5.86276,0.44926 -8.14834,1.12241 5.50574,-8.36616 13.12512,-19.29111 19.53627,-25.93123 11.38761,-11.79431 2.64325,-15.04818 2.64325,-15.04818 l -3.18895,4.47983 5.42603,-9.15655 1.82986,-12.811103 -4.67672,-15.048177 z m 13.10876,69.17356 c 0.11084,-0.87452 -0.0946,-1.4578 -0.0946,-1.4578 0,0 0.0307,0.60697 0.0946,1.4578 z M 95.784856,88.050956 c 0,0 -22.978541,23.181714 -32.535998,42.703334 -9.557458,19.52162 -14.031292,21.14851 -23.182048,25.21552 -9.150758,4.06699 -10.370943,12.40441 -10.370943,12.40441 l 2.643766,3.66024 26.231991,-7.93078 4.473628,-11.99772 9.354468,-26.43559 13.420886,-19.92799 13.828097,-16.06465 z m 38.107284,44.982264 -5.16455,5.65185 -6.47557,6.2265 4.03541,-4.59972 z" /><path
       id="path2"
       style="fill:#f9f9f1;fill-opacity:1;stroke-width:0.264583"
       d="m 121.63707,75.736462 -18.41234,11.009148 -2.29497,2.457214 C 97.530361,88.043269 88.229245,86.555957 88.229245,86.555957 l -9.870199,0.379305 -9.111071,5.884395 -18.032491,18.412313 -11.388969,17.27285 -7.402649,13.85652 -1.708423,20.12073 c 0,0 4.175793,-3.22729 7.402649,-15.18563 3.226857,-11.95835 20.879862,-35.68516 20.879862,-35.68516 0,0 16.703841,-21.259335 36.064982,-21.06952 2.10243,0.02061 3.580036,-0.01799 4.699967,-0.0894 l -15.329809,16.41347 -15.754594,28.09286 -4.365625,17.08319 -0.949296,9.4909 3.037024,-1.51826 c 0,0 6.263972,-21.82881 14.995467,-35.49551 8.731496,-13.66668 24.6758,-34.356949 33.40731,-38.722697 8.7315,-4.365747 21.25939,-6.833354 25.81496,-3.606498 4.55557,3.226858 4.55579,3.416846 4.55579,3.416846 l -7.97212,-9.680546 z m 1.82418,7.106543 c -0.83178,-0.0022 -1.04785,0.222643 -1.91203,0.810287 -1.15225,0.783528 -0.36897,2.626713 -0.36897,2.626713 0,0 2.3508,1.981846 3.54914,0.737423 1.19833,-1.244427 -0.18449,-4.101559 -0.18449,-4.101559 -0.4609,-0.04609 -0.80639,-0.07214 -1.08365,-0.07286 z m -30.165131,26.897065 -0.460954,0.23048 c 0,0 -2.074014,1.70494 -1.474845,2.85719 0.599167,1.15225 1.520837,2.0283 1.520837,2.0283 0,0 1.659388,-0.0461 2.120284,-1.47485 0.460898,-1.42879 0.04578,-2.35094 -0.829923,-2.9962 z m 59.483751,6.46524 -6.27197,2.4846 4.27167,2.06751 -1.2058,3.59704 c 0,0 4.74437,-4.59934 15.74952,0.13407 11.00517,4.7334 13.49013,8.99376 13.49013,8.99376 l -2.24844,-7.81037 -10.17664,-6.86367 z m -70.683584,11.69386 c 0,0 -2.166208,2.16641 -0.737423,3.31866 l 1.428337,1.15238 c 0,0 2.488986,-1.84366 1.152384,-3.13417 -1.336604,-1.29052 -1.843298,-1.33687 -1.843298,-1.33687 z m 72.776994,93.9214 -3.35948,0.0403 -0.97152,4.12894 1.05213,1.86191 c 0,0 0.52612,-1.98373 1.74047,-2.99569 1.21434,-1.01195 3.80493,-1.01182 3.80493,-1.01182 z m 18.53892,3.7238 -3.31917,2.34766 0.0403,4.37183 1.57872,-1.57872 c 0,0 1.0119,-2.18576 2.83342,-2.71198 1.82151,-0.5262 4.08864,0.9307 4.08864,0.9307 l -3.44062,-2.87373 z" /><path
       style="fill:#fefbda;fill-opacity:1;stroke-width:0.264583"
       d="m 4.6815593,162.79705 16.4832057,31.54192 2.848948,20.34963 34.18738,3.05245 14.041245,-6.10489 19.332148,4.06992 22.384644,2.03497 16.4832,-6.10489 9.56432,3.86643 48.22863,1.83146 12.61677,-6.51188 5.2909,-8.54684 -13.83775,-8.75034 -10.37831,3.25594 -11.80278,-7.93636 4.06992,-8.13985 8.75034,-4.27342 9.76783,4.68041 11.80278,-5.08741 -0.40699,-5.69789 -9.97132,-10.58181 -14.65173,-2.44195 -13.43076,5.2909 -7.52936,6.51188 -5.4944,10.37831 -0.2035,-19.53564 -12.82027,-1.01748 -14.04124,18.92515 -11.3958,-18.31467 -14.24478,0.61049 -5.290906,32.35592 -15.465719,-32.55941 -12.820268,1.22098 -10.378311,10.17481 -0.610489,-11.1923 -15.058725,0.2035 -9.157336,13.22726 -10.581807,-13.63425 -14.2447466,0.20349 z"
       id="path9" /><path
       style="display:inline;fill:#000000"
       d="m 114.86497,255.75245 c -1.23912,-0.76471 -3.02684,-3.31181 -3.5719,-5.08916 -0.18426,-0.60085 -0.43687,-2.14131 -0.56136,-3.42324 l -0.22632,-2.33077 -3.30047,-0.1969 c -1.94685,-0.11615 -3.80307,-0.43541 -4.52592,-0.77842 -1.16192,-0.55137 -4.122542,-3.81213 -7.111242,-7.83218 l -1.358561,-1.82737 -0.597855,0.76904 c -0.32882,0.42297 -1.479768,2.19779 -2.557662,3.94404 -3.191211,5.16995 -4.155819,5.73417 -10.372868,6.06735 -4.821883,0.25841 -4.796836,0.24096 -7.411929,5.1652 -2.045052,3.85084 -2.783226,4.81884 -3.674751,4.81884 -0.92289,0 -1.49077,-1.56924 -1.212809,-3.35139 0.347,-2.2248 2.897632,-7.13711 4.578667,-8.81814 1.598254,-1.59826 3.762088,-2.36633 5.734722,-2.03561 2.383515,0.39962 4.064645,0.50369 4.870241,0.3015 1.396634,-0.35053 3.229188,-2.20019 5.934352,-5.98972 3.171703,-4.44309 4.924345,-6.31247 5.766262,-6.15033 0.617145,0.11885 1.341408,1.10772 3.996232,5.45624 0.679094,1.11234 2.214611,3.03118 3.412261,4.2641 l 2.17754,2.24166 2.93776,-0.10291 c 2.26281,-0.0793 2.91429,-0.21383 2.83561,-0.58575 -0.0793,-0.37476 0.19566,-0.42698 1.22822,-0.23327 1.94141,0.36421 2.49312,0.75406 3.29692,2.32963 0.87038,1.70607 1.41073,1.92958 5.30582,2.19461 3.74761,0.255 5.80673,1.02685 6.54426,2.45308 0.48634,0.94048 0.48841,1.1174 0.0186,1.5872 -0.45694,0.45694 -1.13287,0.47494 -4.97729,0.13254 -6.56717,-0.58491 -6.90467,-0.56372 -6.90467,0.43356 0,0.45637 0.39013,1.36919 0.86695,2.02847 1.51301,2.092 2.00068,3.15929 1.88825,4.13254 -0.14181,1.2276 -1.43327,1.40916 -3.02707,0.42556 z m -20.921974,-6.33088 c -2.014715,-2.01471 -0.811162,-4.61324 2.136702,-4.61324 1.619272,0 2.469108,0.85511 2.721741,2.73862 0.160959,1.20004 0.05772,1.48272 -0.783027,2.14405 -1.370524,1.07806 -2.824025,0.98196 -4.075416,-0.26943 z m -42.941193,-5.38936 c -1.122458,-1.12245 0.243688,-2.77895 2.887627,-3.50133 7.360208,-2.01098 7.087502,-1.8742 9.249573,-4.63912 1.096152,-1.40179 2.302442,-2.82209 2.680645,-3.15622 1.242774,-1.09794 0.42429,-1.33277 -4.645288,-1.33277 h -4.884691 l -1.532683,1.28587 c -2.24867,1.88656 -3.584071,2.3344 -7.742531,2.59653 -3.233892,0.20384 -3.902699,0.35614 -4.938889,1.12466 -1.743397,1.29305 -6.900834,3.3803 -9.045449,3.66076 -2.076373,0.27154 -2.912757,-0.13747 -2.912757,-1.42439 0,-1.12857 0.786519,-1.65925 4.874147,-3.2887 4.846454,-1.93195 8.207206,-3.82255 7.956475,-4.47595 -0.106157,-0.27664 -0.732118,-0.68091 -1.391024,-0.89836 -1.176912,-0.38842 -2.622816,-1.82291 -2.617402,-2.59674 0.0028,-0.3954 1.575132,-1.27535 2.278907,-1.27535 0.207409,0 1.167947,0.65595 2.13453,1.45766 2.041148,1.69298 4.349028,2.77568 5.916638,2.77568 0.903711,0 1.461636,-0.39692 3.099251,-2.20486 l 1.997139,-2.20486 13.187473,-0.017 c 7.25311,-0.009 12.552473,0.10058 11.776362,0.24425 -0.776111,0.14367 -2.800173,0.27037 -4.497916,0.28155 -1.697743,0.0112 -3.086805,0.1438 -3.086805,0.29471 0,0.34417 1.105296,1.30102 2.146628,1.85832 1.237629,0.66236 3.985595,0.20127 9.269179,-1.55532 2.648229,-0.88044 5.779327,-1.79052 6.957996,-2.02241 3.174342,-0.62451 8.935908,-0.19328 13.023432,0.97476 3.16132,0.90337 3.78878,0.95966 11.06254,0.99238 l 7.71112,0.0347 1.28471,1.44501 c 0.70659,0.79475 1.72304,2.10282 2.25878,2.90682 0.53573,0.804 1.36481,1.61038 1.84239,1.79196 0.4821,0.18329 2.64622,0.23485 4.86546,0.11592 l 3.99714,-0.21421 1.2907,1.13324 c 0.70988,0.62328 1.63438,1.68934 2.05444,2.36901 0.96739,1.56528 1.56598,1.78046 6.21891,2.23561 9.49113,0.92842 16.23169,1.8652 17.38606,2.41626 1.39445,0.66567 1.76012,1.77751 0.87552,2.66211 -0.85697,0.85697 -6.08894,0.74334 -14.63775,-0.31791 -9.66998,-1.20043 -9.98156,-1.29247 -12.51972,-3.69812 l -1.41111,-1.33745 -4.25718,-0.14046 c -3.89643,-0.12856 -4.40055,-0.22448 -5.94908,-1.13198 -0.93055,-0.54534 -2.58881,-1.90246 -3.68502,-3.01582 l -1.99312,-2.02431 -8.36082,-0.19019 -8.36084,-0.19019 1.44823,2.69381 c 0.79652,1.4816 1.90943,3.28913 2.47313,4.01673 l 1.02489,1.32292 h -0.92176 c -0.50697,0 -1.21116,-0.15488 -1.56486,-0.34417 -0.80294,-0.42972 -2.59449,-2.90977 -4.59335,-6.35861 -1.670144,-2.88168 -4.45041,-6.92457 -4.992283,-7.25946 -0.52665,-0.32549 -4.031747,2.49416 -5.183477,4.16981 -0.567864,0.82618 -1.832423,2.85152 -2.810132,4.50076 -2.511865,4.23711 -4.567107,6.02239 -6.889692,5.98472 l -0.770784,-0.0125 0.764119,-0.42847 c 0.987438,-0.5537 1.730235,-1.55164 3.755566,-5.04559 1.871946,-3.22934 2.003128,-3.76455 0.860175,-3.50943 -3.213266,0.71723 -7.668365,1.2453 -10.514129,1.24626 -3.344807,0.001 -3.378587,0.01 -4.452112,1.14765 -0.594953,0.63059 -1.674992,2.09903 -2.400088,3.26319 -1.585496,2.54558 -2.84274,3.94226 -4.174878,4.63792 -1.279594,0.66823 -9.563687,2.58439 -11.196568,2.58985 -0.688798,0.002 -1.442861,-0.18632 -1.675694,-0.41916 z m 121.219607,-8.36287 c -1.59349,-0.32791 -3.63429,-1.83524 -4.34466,-3.20895 -0.90747,-1.75485 -0.68423,-4.22977 0.54953,-6.09242 1.33102,-2.00947 3.90857,-3.78464 5.49531,-3.78464 1.69566,0 4.79946,1.26509 5.84467,2.38226 1.83919,1.96582 2.68981,4.66153 2.06669,6.54959 -0.44318,1.34286 -2.24089,3.2116 -3.57184,3.71297 -1.35342,0.50984 -4.56579,0.7445 -6.0397,0.44119 z m 4.38696,-5.25057 c 0.33954,-0.29505 0.61736,-0.76586 0.61736,-1.04623 0,-0.74772 -2.28692,-2.90866 -3.07823,-2.90866 -0.81015,0 -2.02731,1.22023 -2.52338,2.52974 -0.30483,0.80469 -0.24174,1.01772 0.43218,1.45929 1.54666,1.0134 3.36222,0.99979 4.55207,-0.0341 z m -25.83048,1.8365 c -1.61233,-0.69934 -2.41218,-1.45459 -3.22303,-3.04331 -0.87756,-1.71942 -0.83837,-2.89989 0.16737,-5.04113 0.88185,-1.87749 1.62848,-2.68422 3.5683,-3.85552 l 1.20995,-0.73059 -7.12835,-0.0111 c -3.92059,-0.006 -7.70604,-0.12902 -8.41211,-0.27322 -0.70607,-0.1442 -2.3655,-0.97267 -3.68762,-1.84104 -2.7379,-1.79826 -3.49064,-1.91696 -4.75017,-0.74906 -2.60541,2.41587 -10.58637,3.1363 -30.847931,2.78459 l -15.169443,-0.26332 -2.293055,-1.58734 -2.293056,-1.58734 -3.880555,0.01 c -2.867731,0.007 -4.15678,0.15701 -4.938888,0.57442 -0.582084,0.31065 -1.980127,1.07719 -3.106764,1.7034 -2.396801,1.33222 -0.662573,1.25649 -25.676161,1.12115 -17.50254,-0.0947 -17.247109,-0.0606 -18.930266,-2.52645 -0.776645,-1.13779 -0.793778,-1.37648 -0.795069,-11.07665 -0.0013,-9.55628 -0.02892,-9.95833 -0.76669,-11.14852 -0.420955,-0.6791 -2.58807,-4.40973 -4.815812,-8.29028 C 2.2401133,164.18199 1.9002141,163.45267 2.975912,160.6056 c 0.560884,-1.4845 2.0785675,-2.90361 3.3025439,-3.08804 0.5966042,-0.0899 4.4362081,-0.25886 8.5324561,-0.37547 l 7.447719,-0.21201 1.06153,0.89321 c 0.583841,0.49127 1.504889,1.76951 2.046773,2.84052 0.541884,1.07102 1.110572,1.9473 1.263753,1.9473 0.443216,0 1.002185,-2.33925 1.559497,-6.52639 1.437728,-10.80178 3.930674,-19.01536 7.748687,-25.52981 0.678724,-1.15806 1.231045,-2.23761 1.227378,-2.39899 -0.0037,-0.16138 -0.856805,-0.70603 -1.895864,-1.21034 l -1.889199,-0.91693 -0.593681,1.34561 c -0.775148,1.75691 -3.105286,3.77722 -6.286177,5.45033 -2.221898,1.16868 -2.940522,1.36548 -5.475259,1.49939 -2.401196,0.12686 -3.306698,0.0138 -5.115279,-0.63852 -5.225339,-1.88478 -9.9725888,-6.27904 -14.94714177,-13.83572 -5.69580023,-8.6523 -6.58904293,-11.19151 -4.51892813,-12.84588 1.3177824,-1.05314 5.8706576,-2.72486 11.0948596,-4.0738 4.7170793,-1.21799 10.8954963,-1.66775 14.2875033,-1.04005 4.235493,0.78379 8.357495,3.43098 10.744306,6.90009 2.001322,2.90882 2.577757,4.91935 2.757195,9.61673 l 0.164361,4.30266 1.608384,0.54804 c 2.767631,0.94302 2.923454,0.86339 4.616148,-2.359 1.588633,-3.02428 4.728263,-7.62039 7.311288,-10.703 l 1.501557,-1.79198 -0.699465,-1.03024 c -0.384706,-0.56664 -1.107345,-1.824 -1.605865,-2.79414 -0.498521,-0.97014 -0.949615,-1.81297 -1.002432,-1.87296 -0.05282,-0.06 -1.006787,0.15569 -2.119934,0.47929 -1.485388,0.43182 -2.979302,0.553 -5.614592,0.45545 -3.182255,-0.1178 -3.852893,-0.262 -5.895802,-1.26772 -3.052077,-1.50253 -5.184285,-3.435086 -7.330742,-6.644305 -3.363079,-5.028221 -4.507404,-11.361035 -3.88295,-21.488641 0.473293,-7.676021 0.580334,-8.24162 1.788372,-9.449657 0.994457,-0.994458 1.14521,-1.0333 3.136179,-0.808047 2.960541,0.334947 8.36253,1.787998 12.675018,3.409383 4.924025,1.851307 9.02658,4.463309 12.025215,7.656177 1.978629,2.106792 2.617578,3.095376 3.534155,5.468055 0.942027,2.438557 1.118769,3.370231 1.118289,5.894921 -3.14e-4,1.649236 -0.192884,3.708787 -0.427935,4.57678 -0.735172,2.714845 -2.588563,6.122065 -4.174795,7.674822 l -1.524043,1.491882 1.347654,2.47451 c 0.74121,1.36098 1.446395,2.47557 1.567078,2.47687 0.277016,0.003 2.91301,-2.76358 6.611403,-6.938874 3.961831,-4.472701 7.836819,-7.472156 12.924727,-10.004452 6.109625,-3.040813 9.432545,-3.928888 15.474955,-4.135796 l 4.891623,-0.167502 -0.195166,-1.810925 c -1.241865,-11.523099 -1.195953,-12.217869 0.807383,-12.217869 1.248132,0 2.000247,0.867317 2.451879,2.827434 0.649046,2.816912 0.439056,5.58009 -0.847451,11.151267 -0.146796,0.635694 0.15414,0.891448 1.981371,1.683896 1.784612,0.773964 2.253192,0.857776 2.729649,0.488228 0.31636,-0.245374 1.76,-1.464792 3.20809,-2.70982 4.75527,-4.088453 9.16511,-6.594032 15.00604,-8.526102 3.37264,-1.115604 3.76825,-1.167411 8.99583,-1.178038 4.88971,-0.0099 5.70859,0.07713 7.74219,0.823261 2.64388,0.970038 1.92651,1.495913 5.59672,-4.102768 3.24716,-4.953345 5.85936,-7.990918 10.90346,-12.678969 3.77323,-3.506887 4.46283,-4.006166 5.53329,-4.006166 1.55684,0 2.99216,0.542283 3.25615,1.230217 0.48134,1.254365 -0.29579,2.302439 -3.48729,4.703106 -4.1993,3.158733 -16.54189,15.750497 -16.23155,16.559232 0.17454,0.454843 0.38741,0.343557 1.09301,-0.571403 1.16287,-1.507926 4.20001,-3.883026 9.65851,-7.553152 7.85086,-5.278664 11.4356,-6.945329 14.96018,-6.95548 1.2596,-0.0036 1.56378,0.156283 2.27687,1.196962 0.59931,0.874641 1.16863,1.256412 2.09438,1.404446 1.73916,0.278102 2.90095,1.570402 2.75501,3.064488 -0.12787,1.308974 0.23966,1.121244 -7.87454,4.022288 -4.36941,1.562181 -11.00387,5.11078 -13.73081,7.344252 l -1.03082,0.844276 4.73498,0.214187 c 2.60424,0.117802 5.29061,0.38574 5.96971,0.595417 1.148,0.354456 1.28427,0.312331 1.94027,-0.599775 1.55358,-2.160096 3.69631,-3.92665 5.6994,-4.698805 2.48614,-0.95836 7.12224,-1.290242 10.1756,-0.728435 5.41179,0.995749 10.83146,5.415279 13.72768,11.194403 1.56963,3.132027 4.79315,12.111775 4.79315,13.352247 0,3.691604 -7.80336,6.065214 -18.87361,5.740934 -6.46859,-0.18948 -8.07124,-0.62688 -11.34034,-3.09508 -3.58739,-2.708508 -5.01908,-5.949829 -5.37235,-12.162939 l -0.22064,-3.880555 -1.68365,-0.835012 c -2.10464,-1.043806 -5.42776,-1.341027 -8.50393,-0.760595 -2.90246,0.547653 -3.36834,1.027796 -2.3648,2.437147 1.1638,1.6344 3.12603,6.004186 3.74086,8.330682 0.30766,1.164166 0.64629,3.545416 0.75251,5.291666 0.22794,3.747086 -0.70031,8.927226 -2.36786,13.213946 -0.56934,1.46358 -1.0358,2.74043 -1.03658,2.83744 -7.9e-4,0.097 2.49879,0.1818 5.55462,0.18842 5.30567,0.0115 5.70709,0.063 8.90744,1.14364 4.13882,1.39749 6.19348,2.58032 9.27728,5.34075 1.31896,1.18065 2.46248,2.14664 2.54114,2.14664 0.0787,0 1.90773,-1.69868 4.0646,-3.77483 4.31637,-4.15484 4.81481,-4.53794 12.61755,-9.69791 4.60282,-3.04385 5.64997,-3.59144 7.14193,-3.7348 1.98408,-0.19065 2.81028,0.26403 2.81028,1.54656 0,1.38853 -1.69922,2.79361 -6.99102,5.78083 -2.77791,1.56813 -6.11166,3.61234 -7.40833,4.54268 -1.29668,0.93035 -3.29058,2.06225 -4.43089,2.51534 -1.34875,0.5359 -2.74436,1.47895 -3.99352,2.69852 -2.32129,2.26631 -2.18324,3.20519 0.18489,1.25739 2.9667,-2.44013 3.9129,-2.94312 6.85656,-3.64487 1.59825,-0.38102 3.93779,-1.01228 5.19898,-1.40281 5.41807,-1.67773 15.27047,-2.2911 19.00191,-1.18298 2.35478,0.6993 3.00932,1.80046 1.92972,3.24647 l -0.71035,0.95144 -5.61272,0.0172 c -3.67328,0.0113 -6.16129,0.18303 -7.20023,0.49715 -0.89965,0.27199 -3.36648,0.49752 -5.69322,0.52049 l -4.10572,0.0405 -4.80192,2.39219 c -2.90255,1.44596 -4.80192,2.59716 -4.80192,2.91041 0,0.51657 0.40715,0.66871 1.41111,0.5273 0.29104,-0.041 2.35479,-0.94097 4.58611,-1.99995 4.79108,-2.27382 6.43854,-2.70007 9.21974,-2.38541 2.31237,0.26162 2.78522,0.82584 0.74624,0.89043 -1.2137,0.0384 -1.16786,0.0701 0.55526,0.38384 1.55517,0.28312 1.98463,0.24558 2.49722,-0.2183 1.61817,-1.46443 10.61765,0.31684 10.61765,2.10155 0,0.364 -0.24704,0.38442 -1.14652,0.0948 -1.28706,-0.41445 -2.4335,-0.55154 -6.26181,-0.74878 -1.45521,-0.075 -3.91583,-0.25663 -5.46805,-0.40367 -2.55165,-0.24172 -3.05282,-0.17989 -5.22736,0.64495 -1.32282,0.50176 -2.78842,1.2138 -3.25689,1.5823 -0.85165,0.6699 -0.85115,0.67002 3.46346,0.83343 4.27663,0.16196 6.74695,0.74871 7.9923,1.8983 0.93248,0.86079 -1.29796,1.28241 -8.26318,1.562 -3.68653,0.14798 -7.38169,0.46451 -8.21148,0.70339 -1.30651,0.37613 -1.4765,0.53464 -1.26845,1.18279 0.63021,1.96331 0.82029,3.4801 0.82324,6.56929 0.004,3.88243 -0.60285,6.80212 -2.09832,10.10031 -0.58468,1.28947 -1.06305,2.53959 -1.06305,2.77804 0,0.31015 1.28027,0.48835 4.49792,0.62605 4.43062,0.18962 8.06092,0.88469 10.14236,1.94191 2.7003,1.37155 7.64736,5.99053 9.52717,8.89535 1.53993,2.3796 3.34922,6.51471 3.34922,7.65459 0,1.12185 -1.03104,2.19917 -3.11225,3.25196 -1.10167,0.55729 -3.0349,1.8399 -4.29608,2.85026 -2.82178,2.26058 -4.83776,3.45042 -5.99723,3.53958 -2.67498,0.2057 -3.16371,0.0168 -5.44386,-2.10444 -2.5459,-2.36844 -4.21025,-3.00916 -7.17754,-2.76308 -2.30891,0.19147 -4.37488,1.54082 -5.95513,3.88949 -1.45675,2.16511 -1.74247,3.94306 -1.02841,6.39934 1.07131,3.68517 3.53711,5.48282 7.53983,5.49677 2.71478,0.009 3.81325,-0.50897 6.53186,-3.08277 l 2.05146,-1.94219 2.03102,0.18416 c 2.4745,0.22438 4.14615,1.05513 6.91883,3.4384 1.16417,1.00067 2.98979,2.26702 4.05694,2.81413 2.64193,1.35446 3.56952,2.43072 3.79137,4.39903 0.32527,2.88572 -0.92071,5.19705 -5.12353,9.50435 -3.89587,3.99273 -9.40495,7.1723 -14.16293,8.17414 -1.73055,0.36438 -5.72697,0.49395 -15.72574,0.50983 -7.37305,0.0117 -13.96118,-0.0842 -14.64027,-0.21308 l -1.23473,-0.23437 1.22162,0.84508 c 4.73321,3.27433 4.65756,10.15958 -0.13555,12.3365 -1.791,0.81343 -5.84533,0.87229 -7.60196,0.11037 z m 5.82637,-4.89341 c 0.95698,-0.95697 1.06854,-1.62408 0.46134,-2.75865 -1.10056,-2.05641 -2.99575,-2.54179 -4.67573,-1.19752 -0.83352,0.66697 -1.02984,1.10508 -1.05833,2.36183 -0.0297,1.30779 0.0994,1.61208 0.84697,1.99641 1.47644,0.75909 3.44327,0.58041 4.42575,-0.40207 z m 33.41956,-14.39822 c 1.50915,-0.49225 3.8904,-1.57382 5.29166,-2.40349 2.78596,-1.64954 6.50093,-5.12068 7.45506,-6.96576 0.74866,-1.44775 0.51735,-1.78342 -2.24268,-3.2545 -1.10249,-0.58762 -2.97758,-1.85574 -4.16687,-2.81804 -1.18929,-0.9623 -2.35322,-1.74963 -2.58652,-1.74963 -0.2333,0 -1.19978,0.72548 -2.14773,1.61217 -2.35701,2.20471 -5.09222,3.40128 -8.23611,3.60304 -7.57063,0.48585 -13.45818,-4.80404 -13.85345,-12.44716 -0.31013,-5.99685 2.46877,-10.58977 7.96629,-13.16651 1.77194,-0.83052 2.44133,-0.94327 5.54309,-0.93363 3.1563,0.01 3.74879,0.11817 5.6267,1.02909 1.15441,0.55996 2.79598,1.73534 3.64794,2.61194 1.41463,1.45555 1.63244,1.56234 2.5105,1.23091 1.22627,-0.46286 8.1695,-5.41351 8.38688,-5.98 0.47643,-1.24154 -4.45719,-6.90916 -7.70322,-8.84927 -6.24481,-3.73244 -15.98842,-4.32538 -22.6519,-1.37847 -6.59018,2.91448 -11.9991,8.50535 -14.75236,15.24859 -0.88701,2.17247 -1.69926,6.51039 -1.69926,9.07518 0,2.99072 0.89246,7.61044 2.02086,10.46078 3.12776,7.90074 10.17208,13.78705 18.79303,15.70367 3.50853,0.78003 9.36005,0.49247 12.79809,-0.62891 z m -153.073128,0.34822 c 0.56334,-0.41193 0.61542,-1.27437 0.587009,-9.72089 l -0.03118,-9.26885 1.206527,-2.00898 c 4.591377,-7.64506 6.874377,-11.63247 14.13146,-24.68152 1.184044,-2.12905 1.968518,-3.94709 1.90277,-4.40973 -0.110224,-0.7756 -0.202083,-0.78859 -6.248254,-0.88391 -5.245751,-0.0827 -6.227794,-0.014 -6.76618,0.47321 -0.346386,0.31348 -2.564109,4.02031 -4.928271,8.23741 -2.364163,4.2171 -4.590245,8.05228 -4.946849,8.52262 -0.573619,0.75657 -0.706797,0.79416 -1.155128,0.326 -0.278716,-0.29104 -2.359069,-4.00135 -4.623008,-8.24512 -2.263938,-4.24377 -4.363605,-8.09346 -4.665925,-8.55486 -0.543649,-0.82971 -0.615929,-0.83885 -6.594519,-0.83351 -3.324666,0.003 -6.2647699,0.14469 -6.5335658,0.31492 -0.6764198,0.42838 -0.27829,1.87419 1.1746624,4.26579 0.6483194,1.06716 2.5219134,4.32153 4.1635424,7.23195 4.042692,7.16722 8.136992,14.27913 10.007789,17.3838 l 1.546896,2.56715 v 9.3191 c 0,9.23018 0.0075,9.32434 0.784051,9.86827 1.031998,0.72284 10.023764,0.80234 10.988169,0.0971 z m 24.216823,-0.18722 c 0.434188,-0.35158 1.285213,-1.8994 1.891166,-3.43958 l 1.101732,-2.80034 9.243248,-0.094 9.243248,-0.094 1.692862,3.44541 1.692863,3.4454 5.427368,0.0976 c 7.537344,0.1356 8.063091,-0.26204 6.077713,-4.59684 -0.56019,-1.2231 -1.684787,-4.12426 -2.499103,-6.44703 -2.304221,-6.57259 -5.253679,-14.5057 -6.618988,-17.80298 -0.683395,-1.65043 -2.552647,-6.49328 -4.153894,-10.76189 -1.601247,-4.26861 -3.318451,-8.67393 -3.816009,-9.78959 l -0.90465,-2.02847 h -5.832113 c -5.659738,0 -5.847395,0.0235 -6.349143,0.79375 -0.458697,0.7042 -3.784672,8.7455 -6.018908,14.55208 -0.447943,1.16417 -1.554678,4.02167 -2.45941,6.35 -0.904732,2.32834 -1.945911,5.07013 -2.31373,6.09288 -0.36782,1.02275 -1.066081,2.769 -1.551693,3.88056 -1.854944,4.24593 -6.911049,17.69008 -6.911049,18.37643 0,1.21977 1.016682,1.43797 6.75189,1.44913 4.810826,0.009 5.618235,-0.0711 6.3066,-0.62852 z m 7.40262,-18.90316 c 0,-0.39554 3.920099,-10.90799 4.448972,-11.93072 0.302477,-0.58492 0.682367,-0.9262 0.844199,-0.75838 0.565944,0.58686 5.020571,12.15759 4.775358,12.40381 -0.290927,0.29212 -10.068529,0.56917 -10.068529,0.28529 z m 44.597575,19.32827 c 0.4885,-0.18745 0.56294,-1.40704 0.59751,-9.78958 0.0217,-5.2665 0.14078,-11.08358 0.26458,-12.92684 l 0.2251,-3.35139 3.55328,6.87917 c 1.95431,3.78354 4.4738,8.74096 5.59888,11.01649 1.12508,2.27553 2.24778,4.30511 2.49487,4.51019 0.45723,0.37946 0.67053,0.0425 4.58009,-7.23641 0.72951,-1.35819 2.31201,-4.29506 3.51668,-6.52638 1.20468,-2.23132 2.57326,-4.89892 3.04131,-5.928 l 0.851,-1.87106 0.20652,2.753 c 0.11359,1.51415 0.13282,6.80113 0.0428,11.74883 -0.16133,8.862 -0.15221,9.01027 0.61284,9.96597 l 0.7766,0.97014 5.17786,-0.0248 c 2.84783,-0.0136 5.44818,-0.1327 5.77855,-0.26458 0.55437,-0.22131 0.61792,-2.08919 0.82431,-24.22868 0.123,-13.19389 0.23354,-24.40804 0.24566,-24.92034 0.0495,-2.09132 0.12561,-2.06716 -6.51577,-2.06716 h -6.102 l -1.45859,2.23425 c -0.80223,1.22884 -2.57012,4.44353 -3.92865,7.14375 -4.14632,8.24126 -6.88183,13.19978 -7.28203,13.19978 -0.20949,0 -1.91846,-3.05594 -3.7977,-6.79097 -1.87925,-3.73504 -4.49673,-8.85473 -5.81664,-11.37709 l -2.39982,-4.58611 -6.17361,0.1148 c -5.26856,0.098 -6.24057,0.20141 -6.63011,0.70556 -0.36562,0.47318 -0.43583,5.41211 -0.35278,24.81604 l 0.10368,24.22529 0.85525,0.91012 c 0.83886,0.89269 0.94816,0.91013 5.70382,0.91013 2.6667,0 5.09965,-0.0964 5.40656,-0.21413 z m 14.08904,-43.75035 c 1.15611,-0.96469 1.95732,-2.12072 1.9787,-2.85499 0.007,-0.23606 -0.71202,-1.24497 -1.59755,-2.24202 -1.03547,-1.16589 -2.54052,-3.71946 -4.2174,-7.15553 -1.43404,-2.93848 -2.75012,-5.55274 -2.92463,-5.80947 -0.23502,-0.34574 -0.65147,0.0201 -1.60617,1.41111 -0.70889,1.03284 -1.5411,2.22898 -1.84936,2.6581 -0.53415,0.74357 -0.48667,0.87612 1.0109,2.82222 0.86425,1.12311 2.56674,3.94701 3.78331,6.27535 2.15547,4.12527 3.31609,5.82083 3.98439,5.82083 0.1807,0 0.82772,-0.41652 1.43781,-0.9256 z m -92.995153,-5.00779 c 1.212177,-1.87837 2.62276,-4.06839 3.134628,-4.86672 1.76932,-2.75947 1.860798,-2.77945 12.822841,-2.80012 l 9.694762,-0.0183 1.26649,-5.80255 c 1.083516,-4.96423 2.281018,-9.49802 3.011479,-11.40157 0.125689,-0.32754 -0.40677,-0.91883 -1.505975,-1.67236 -2.190506,-1.50166 -7.895521,-7.23761 -6.086659,-6.11967 0.206938,0.1279 0.578599,-0.0442 0.825913,-0.38241 0.426918,-0.58385 0.554424,-0.582 2.520702,0.0365 1.521684,0.47862 2.472308,1.07021 3.583809,2.23023 0.832024,0.86835 1.51277,1.70917 1.51277,1.86848 0,0.15932 0.122379,0.28967 0.271952,0.28967 0.310646,0 0.866775,-1.05809 4.167242,-7.92862 1.302554,-2.7115 2.967644,-5.90925 3.700199,-7.10611 0.732556,-1.19685 1.924119,-3.2646 2.647919,-4.59499 1.485993,-2.73135 6.173577,-9.64731 7.008575,-10.3403 0.301706,-0.25039 0.548556,-0.67618 0.548556,-0.9462 0,-0.68668 -1.90966,-2.37153 -4.409721,-3.8906 -2.342272,-1.423192 -3.604967,-2.459897 -4.088638,-3.356874 -0.419228,-0.777465 0.483709,-1.700193 1.663728,-1.700193 1.216679,0 5.324473,1.799725 7.781989,3.409479 1.128189,0.738998 2.15433,1.345748 2.280312,1.348328 0.125983,0.003 0.965014,-0.94307 1.864513,-2.101449 0.8995,-1.158378 2.992987,-3.502784 4.652194,-5.209791 l 3.016739,-3.10365 -1.529864,-0.671896 c -7.842977,-3.444535 -19.528766,-0.06783 -29.148323,8.422655 -2.862295,2.526341 -6.975511,7.530881 -6.638192,8.076671 0.09894,0.16009 1.179663,0.58689 2.401606,0.94844 3.067507,0.90762 9.104436,5.08516 9.099128,6.29657 -9.63e-4,0.21995 -0.374217,0.86542 -0.829452,1.43436 l -0.8277,1.03444 -2.788873,-1.635 c -3.740172,-2.19272 -6.94438,-3.60869 -9.397454,-4.15284 -1.855089,-0.41151 -2.089261,-0.3935 -2.758505,0.21216 -1.091813,0.98808 -7.658598,10.46272 -8.276366,11.94124 -0.496848,1.18913 -0.490314,1.29706 0.0894,1.47667 3.644679,1.12922 7.967428,3.24458 10.033794,4.91008 0.819886,0.66083 1.222154,1.93575 0.610776,1.93575 -0.148614,0 -0.370979,0.3175 -0.494143,0.70556 -0.324337,1.02189 -1.225966,0.87831 -4.147927,-0.66058 -2.748149,-1.44734 -7.507238,-3.21998 -8.644847,-3.21998 -0.824261,0 -1.524978,0.7566 -2.503214,2.70284 -1.080166,2.14904 -2.892193,6.7496 -3.406032,8.64759 -0.440948,1.62874 -0.434986,1.65343 0.484735,2.00641 0.512146,0.19656 1.4868,0.4644 2.165897,0.59519 1.835559,0.35354 6.385734,2.53076 7.479971,3.5791 0.986643,0.94527 0.971369,1.19342 -0.167258,2.71738 -0.48356,0.6472 -0.580656,0.6284 -2.936266,-0.56872 -2.678297,-1.36112 -7.458868,-3.09923 -8.524216,-3.09923 -1.347122,0 -1.967067,3.1436 -2.539333,12.87638 -0.294097,5.00184 -0.736152,8.58763 -1.293838,10.49514 -0.40696,1.39197 0.519259,0.37798 2.600178,-2.84658 z m 56.773439,0.76041 c 2.82704,-2.10386 4.174697,-3.59476 5.574951,-6.16748 l 0.948493,-1.7427 -0.966972,-1.26776 c -0.531834,-0.69727 -1.765131,-2.00013 -2.74066,-2.89523 -0.975528,-0.8951 -2.782463,-2.59913 -4.01541,-3.78673 -2.124435,-2.0463 -2.21961,-2.20781 -1.819109,-3.08681 0.346244,-0.75992 0.66011,-0.92753 1.736897,-0.92753 2.880231,0 8.942259,5.36578 10.928234,9.67309 l 0.63757,1.38281 2.36809,-0.0858 c 1.30245,-0.0472 2.7049,-0.21731 3.11654,-0.37799 1.34464,-0.52483 5.9977,-4.19872 6.47744,-5.11434 1.24286,-2.37208 -3.83785,-11.03045 -9.44199,-16.09067 -3.37664,-3.04891 -4.149207,-4.22865 -3.3153,-5.06255 1.58969,-1.58968 3.96654,-0.66755 7.54122,2.92572 2.3391,2.35127 5.30792,5.63119 5.30792,5.86411 0,0.0685 0.68805,1.28865 1.529,2.71138 0.84095,1.42273 1.68754,3.06304 1.88132,3.64512 0.64836,1.94763 1.32282,1.56463 6.31303,-3.58493 2.60188,-2.68495 5.15384,-5.48061 5.67103,-6.21257 0.85315,-1.20745 0.90374,-1.45276 0.54569,-2.64584 -0.21706,-0.72324 -1.23331,-2.55767 -2.25833,-4.07649 -1.02503,-1.51883 -2.18905,-3.29851 -2.58673,-3.95485 -0.91105,-1.50363 -1.83449,-2.51686 -5.23768,-5.74696 -2.99503,-2.8427 -3.32518,-3.81608 -1.51001,-4.4519 1.53845,-0.53889 4.41602,1.16033 7.8166,4.61572 3.24735,3.29968 4.7743,5.3235 6.54795,8.67863 l 1.25624,2.37635 1.60577,-1.6708 c 2.36392,-2.45964 7.60439,-9.08305 7.88428,-9.9649 0.4155,-1.30912 -4.01876,-9.23719 -5.41418,-9.68008 -0.34097,-0.10822 -0.82733,-0.77025 -1.08078,-1.47117 -0.2774,-0.76713 -1.99047,-2.85341 -4.30368,-5.24126 -2.11357,-2.18177 -3.84285,-4.174824 -3.84285,-4.42901 0,-0.753755 1.10883,-1.752435 1.94572,-1.752435 1.48788,0 5.29262,3.066734 7.22162,5.820835 0.5436,0.77611 1.60052,2.05856 2.3487,2.84988 1.55562,1.6453 4.55103,6.50054 5.24461,8.50094 l 0.46779,1.34918 1.25241,-2.64584 c 1.80693,-3.81729 2.33304,-6.24364 2.33304,-10.75972 0,-7.015856 -1.98566,-11.978215 -6.59812,-16.489357 -3.84984,-3.765277 -4.36004,-4.111161 -7.80589,-5.291893 -3.87876,-1.329071 -8.83647,-1.662808 -12.65497,-0.851891 -3.56617,0.757334 -7.70914,2.641922 -11.81123,5.372795 -3.7077,2.468305 -8.9068,7.268148 -8.67052,8.004676 0.077,0.239926 1.48027,0.912479 3.11843,1.494562 1.63816,0.582084 3.89885,1.591217 5.02374,2.242518 2.24901,1.302164 6.23745,4.81591 6.23745,5.4951 0,0.23632 -0.38337,0.78983 -0.85193,1.23002 -1.02529,0.96321 -1.47842,0.8562 -4.41708,-1.04315 -4.86485,-3.144345 -11.590529,-5.685588 -13.469253,-5.089304 -1.743342,0.553315 -13.337902,14.969544 -15.528293,19.307274 l -1.027183,2.03418 0.801709,0.29749 c 0.440939,0.16362 1.674833,0.4978 2.741986,0.74263 3.790145,0.86955 8.113888,3.8516 8.113888,5.59609 0,0.34422 -0.225654,0.93401 -0.501453,1.31065 -0.489252,0.66812 -0.560064,0.65577 -2.910416,-0.50764 -5.69818,-2.82057 -10.110282,-3.6334 -11.240307,-2.07077 -3.394964,4.69464 -6.545018,10.9585 -5.856977,11.64654 0.188625,0.18862 1.571199,0.63558 3.072388,0.99324 2.612649,0.62246 5.470195,2.13717 7.474523,3.96205 l 0.79748,0.72608 -0.951676,0.99334 c -0.523421,0.54633 -1.29566,0.99333 -1.716087,0.99333 -0.420426,0 -2.306038,-0.72041 -4.190249,-1.6009 -5.540448,-2.58907 -6.376335,-2.50624 -7.595629,0.75261 -0.736218,1.96772 -2.586674,10.58628 -3.053439,14.2215 l -0.24498,1.90792 7.260159,-0.24726 c 8.149442,-0.27755 8.884512,-0.14361 10.64465,1.93969 1.056777,1.2508 2.16505,3.51547 3.171131,6.47996 0.615927,1.81487 1.127177,2.40598 1.767094,2.0431 0.203292,-0.11528 1.509453,-1.05785 2.90258,-2.0946 z m 42.875694,-4.88119 c 2.62219,-4.08159 2.13603,-3.89168 9.75525,-3.81072 3.61474,0.0384 7.47194,0.16387 8.57157,0.2788 l 1.99932,0.20897 -1.534,-3.76404 c -0.8437,-2.07023 -2.04808,-4.57694 -2.6764,-5.57047 -3.21784,-5.08824 -3.48761,-5.62046 -3.09106,-6.09828 0.74556,-0.89835 2.25408,-0.53002 3.95262,0.96509 1.66371,1.46445 4.87288,6.52864 6.02038,9.50038 0.33714,0.87312 0.82069,1.91025 1.07454,2.30473 0.25386,0.39448 0.80525,2.14073 1.22531,3.88056 1.14599,4.74645 1.17989,4.80371 2.55932,4.32284 0.63244,-0.22047 2.35404,-1.12718 3.82578,-2.01491 1.47174,-0.88773 3.69361,-2.16968 4.93749,-2.84878 3.02438,-1.65116 4.50216,-3.20742 6.26719,-6.60003 3.4944,-6.71667 3.28569,-12.60568 -0.7206,-20.33313 -2.2179,-4.27795 -4.27913,-6.29476 -8.51851,-8.33494 -1.9593,-0.94291 -4.60439,-1.96582 -5.87796,-2.27314 -2.93295,-0.70773 -8.71916,-0.75035 -9.68855,-0.0714 -0.38272,0.26807 -0.81756,0.49416 -0.96631,0.50243 -1.65202,0.0918 -5.1794,1.65228 -5.72295,2.53178 -0.34639,0.56046 0.73228,2.18851 2.78915,4.20972 2.12987,2.09295 3.9825,5.22186 3.63227,6.13454 -0.12178,0.31735 -0.62399,0.67803 -1.11602,0.80153 -0.73778,0.18517 -1.24017,-0.0913 -2.86576,-1.57699 -1.08413,-0.99084 -2.09282,-1.80152 -2.24152,-1.80152 -0.14871,0 -0.65185,-0.33581 -1.1181,-0.74623 -2.33681,-2.05704 -2.06625,-2.13507 -5.68242,1.63886 -1.80356,1.88224 -3.39238,3.61742 -3.53071,3.85597 -0.14756,0.25445 0.2282,0.95745 0.90911,1.70083 1.25501,1.37016 3.17614,4.79982 3.52683,6.29622 0.25849,1.10302 -0.87786,2.77657 -1.88532,2.77657 -0.38037,0 -1.60897,-1.16119 -2.97283,-2.80971 -2.90472,-3.51101 -3.45383,-3.84709 -4.26439,-2.61001 -0.33029,0.50407 -1.9311,2.28691 -3.55737,3.96186 -1.62627,1.67495 -2.95977,3.21166 -2.96332,3.41491 -0.004,0.20325 0.81371,1.87013 1.81616,3.70417 2.98482,5.4609 4.53124,8.76563 4.9493,10.57674 0.39103,1.69404 0.39926,1.70179 0.99516,0.93719 0.33048,-0.42404 1.31478,-1.88223 2.18735,-3.24043 z m 32.78347,-17.37124 c -1.21018,-3.38314 -2.22312,-5.15742 -5.2145,-9.13377 -1.04107,-1.38387 -1.89286,-2.82056 -1.89286,-3.19264 0,-0.91865 0.67264,-1.52318 1.69477,-1.52318 1.27232,0 4.58376,3.58455 6.2024,6.71393 0.74952,1.44907 1.81864,3.36197 2.37583,4.25087 1.06023,1.69143 1.62402,4.40197 1.08191,5.20153 -0.17441,0.25725 -0.94713,0.55223 -1.71715,0.65551 l -1.40003,0.18778 z M 24.649305,129.13799 c 1.95388,-0.93879 5.115278,-3.55879 5.115278,-4.23927 0,-0.16046 -0.720645,-0.56697 -1.601432,-0.90334 -0.880787,-0.33638 -2.080817,-1.01497 -2.666733,-1.50799 l -1.065302,-0.89639 -1.153899,1.1184 c -1.44198,1.39762 -4.240267,2.4814 -7.095266,2.74801 l -2.191079,0.2046 -0.388537,-1.11455 c -0.555842,-1.59449 -0.236747,-2.04798 1.633902,-2.32206 2.104361,-0.30832 4.754376,-1.45981 4.577913,-1.9892 -0.07448,-0.22344 -1.318916,-0.83612 -2.765411,-1.36151 -1.446495,-0.52539 -3.979367,-1.59144 -5.628603,-2.36899 -1.6492367,-0.77755 -3.5939244,-1.6731 -4.3215285,-1.99012 -1.0739249,-0.4679 -1.3218998,-0.76005 -1.3175145,-1.55223 0.011446,-2.06767 0.3275984,-2.12919 4.298654,-0.83647 1.998395,0.65055 5.507384,2.03626 7.797753,3.07936 2.290369,1.0431 4.218512,1.89654 4.284763,1.89654 0.06625,0 -0.416686,-1.23031 -1.073193,-2.73403 -0.656508,-1.50371 -1.195588,-3.00625 -1.197957,-3.33897 -0.0059,-0.82486 1.23261,-1.45338 2.026561,-1.02847 0.79927,0.42775 3.515964,5.52026 3.880263,7.27365 0.261276,1.25752 0.455625,1.42826 2.881579,2.53148 l 2.601406,1.183 -0.208294,-2.95155 c -0.233637,-3.31067 -1.257819,-6.63427 -2.428322,-7.88021 -1.121747,-1.19405 -3.859075,-2.88179 -5.982577,-3.68866 -1.332999,-0.5065 -2.707709,-0.69749 -5.038098,-0.69996 -4.374703,-0.005 -7.318485,0.50798 -12.8396573,2.23583 -5.56295343,1.74093 -5.42162473,1.26837 -2.0703361,6.92256 2.7284398,4.60334 7.6367114,10.73556 9.8850064,12.34998 4.061144,2.91616 8.444987,3.593 12.050661,1.86056 z M 43.43472,99.066088 c 0.630591,-0.199357 1.146528,-0.434809 1.146528,-0.523226 0,-0.08842 -0.387598,-0.925646 -0.861329,-1.860509 -0.854827,-1.68692 -0.877063,-1.701395 -2.945806,-1.917622 -2.508958,-0.262238 -7.768865,-1.861774 -8.628281,-2.623858 -0.821288,-0.728275 -0.78231,-1.736099 0.0851,-2.200322 0.516716,-0.276538 1.193004,-0.238228 2.557639,0.144884 1.020349,0.286456 2.806117,0.631851 3.968373,0.767544 l 2.113194,0.246715 -0.954767,-1.197761 C 39.390249,89.243164 38.054014,87.354797 36.94596,85.705561 35.837906,84.056325 34.101848,81.5957 33.088053,80.237506 c -2.775824,-3.718811 -3.656101,-6.855698 -2.092255,-7.455802 0.819669,-0.314536 1.470072,0.396538 4.307928,4.709781 1.431821,2.176216 2.738226,4.040139 2.903124,4.142051 0.164898,0.101913 0.403045,-0.408628 0.529216,-1.134534 0.52258,-3.006597 1.56289,-4.065149 2.676454,-2.723386 0.515855,0.621568 0.251212,4.320221 -0.395592,5.528785 -0.294036,0.549411 -0.29344,1.070315 0.0023,2.01221 0.494257,1.574139 1.94156,3.382197 2.453897,3.065555 0.209633,-0.12956 0.71703,-1.380111 1.127549,-2.779001 0.926601,-3.157493 1.597246,-3.950794 2.91606,-3.449382 0.714249,0.271557 0.943594,0.598391 0.939024,1.338185 -0.0089,1.442487 -1.185005,5.703912 -2.02871,7.350753 l -0.734147,1.432995 1.048802,1.917883 c 0.57684,1.054835 1.175416,2.044498 1.330168,2.19925 0.395034,0.395033 2.028292,-1.850101 3.094384,-4.253649 1.174889,-2.648836 1.500886,-6.733442 0.720253,-9.024473 -1.976715,-5.801337 -8.80624,-10.954325 -18.064981,-13.630324 -6.087076,-1.759311 -6.605022,-1.861305 -6.913925,-1.36149 -0.946903,1.532122 -0.806815,14.589193 0.203783,18.993759 0.672815,2.932379 2.451384,6.439656 4.3074,8.494044 3.052053,3.378257 7.873892,4.764854 12.015935,3.455372 z m 144.99635,0.01 c 4.01291,-0.466287 4.66966,-0.755761 4.66966,-2.05826 0,-1.279105 -3.10877,-9.653319 -4.40424,-11.863867 -1.36135,-2.322969 -2.77501,-3.813818 -5.04523,-5.320705 -3.90635,-2.592882 -7.9183,-3.245531 -11.43956,-1.860942 -1.86747,0.734308 -4.15819,2.244882 -4.15819,2.742044 0,0.325236 3.01256,1.816232 3.6697,1.816232 0.26171,0 1.37324,-0.396875 2.47007,-0.881944 2.57015,-1.136644 5.35589,-1.19944 6.68904,-0.150785 1.96196,1.543278 1.0369,2.357915 -3.39635,2.990922 -0.92402,0.131937 -1.76825,0.382623 -1.87607,0.55708 -0.10782,0.174456 1.12445,0.924888 2.73837,1.667626 5.57604,2.566133 11.0753,6.661227 10.81129,8.050759 -0.093,0.489282 -0.50037,0.666249 -1.70645,0.741243 -1.45217,0.0903 -1.98159,-0.151483 -6.34683,-2.898541 -2.61937,-1.64838 -5.03037,-3.161415 -5.35778,-3.362301 -0.52794,-0.323933 -0.57389,-0.215542 -0.40622,0.958263 0.10398,0.727931 0.33128,1.879135 0.50511,2.558233 0.49483,1.933061 0.40434,3.880555 -0.18031,3.880555 -1.65734,0 -2.29307,-1.003145 -3.36931,-5.316567 -0.40809,-1.635541 -0.89954,-3.374749 -1.09211,-3.864908 -0.43169,-1.098774 -3.87579,-3.27393 -4.38688,-2.770574 -0.19402,0.191093 -0.34896,1.648791 -0.34431,3.239329 0.0109,3.719084 0.80783,6.054348 2.83589,8.310047 1.67178,1.859416 3.47223,2.780412 6.32787,3.236937 1.97198,0.315257 8.35557,0.11572 12.79284,-0.399876 z M 148.16755,76.945904 c 3.54246,-2.895478 7.72071,-5.572603 12.7248,-8.15314 6.4926,-3.34814 7.42787,-4.831858 1.34032,-2.126282 -8.07198,3.587545 -18.48891,10.608156 -17.68059,11.916043 0.45374,0.734174 1.03911,0.469193 3.61547,-1.636621 z M 14.380804,230.51495 c -0.952739,-0.95274 -0.911891,-1.88947 0.134347,-3.08093 0.753788,-0.85841 2.77001,-0.81799 3.242576,0.065 0.59425,1.11037 0.420551,2.31764 -0.451298,3.1367 -1.064953,1.00047 -1.836223,0.96863 -2.925625,-0.12077 z m 8.904965,-0.19612 c -1.248987,-0.98245 -1.248987,-2.49411 0,-3.47656 1.567671,-1.23313 2.902132,-0.93521 4.037159,0.9013 0.872019,1.41096 0.579289,2.02989 -1.339376,2.8319 -1.47864,0.61808 -1.600491,0.60649 -2.697783,-0.25664 z m 167.924971,0.0267 c -1.29253,-0.40146 -2.34335,-1.35428 -2.34335,-2.12483 0,-0.33182 0.31813,-1.00774 0.70696,-1.50205 1.8576,-2.36156 7.57886,-0.98224 6.91397,1.66686 -0.40505,1.61386 -3.13173,2.62651 -5.27758,1.96002 z M 29.499999,228.72715 c -0.670058,-0.29303 -1.144283,-0.75754 -1.141125,-1.11775 0.0033,-0.37166 0.108298,-0.46608 0.264583,-0.23784 0.14255,0.20818 0.559448,0.48963 0.92644,0.62544 0.591213,0.21878 0.611316,0.17916 0.176389,-0.34769 -0.383145,-0.46412 -0.393613,-0.62734 -0.0477,-0.74376 0.243744,-0.082 0.348673,-0.30205 0.233176,-0.48893 -0.129233,-0.2091 -0.401424,-0.1809 -0.707753,0.0733 -0.273768,0.22721 -0.49776,0.2921 -0.49776,0.14421 0,-0.41189 1.166224,-1.20479 1.790589,-1.21739 0.703911,-0.0142 2.089967,1.43897 2.089967,2.19118 0,0.67686 -0.936509,1.69007 -1.524504,1.64938 -0.228676,-0.0158 -0.931712,-0.25441 -1.562302,-0.53018 z m 108.391011,0.3011 c -0.38806,-0.074 -1.18181,-0.31004 -1.76389,-0.52458 -3.93303,-1.44965 -3.35691,-5.23273 0.72678,-4.77244 2.51313,0.28326 3.91499,1.96172 3.2446,3.8848 -0.38633,1.10823 -1.17049,1.60989 -2.20749,1.41222 z M 10.933056,209.13955 c -1.2738027,-0.3487 -2.6879208,-1.64978 -2.6879208,-2.47304 0,-0.34342 0.3665286,-1.05051 0.8145081,-1.57131 0.629096,-0.73137 1.2253927,-0.98641 2.6195147,-1.12036 1.592098,-0.15298 1.91214,-0.0663 2.713271,0.73482 0.499545,0.49955 0.908264,1.29477 0.908264,1.76716 0,1.8429 -2.281499,3.23382 -4.367637,2.66273 z M 191.14,151.40501 c -0.76084,-0.52835 -1.56705,-2.03166 -1.56705,-2.92201 0,-1.21572 1.35918,-2.45244 2.69527,-2.45244 2.3551,0 3.45946,3.04956 1.73049,4.77853 -0.84767,0.84767 -2.11558,1.11198 -2.85871,0.59592 z M 18.650395,150.47066 c -1.320677,-1.32068 -1.492114,-2.58017 -0.485941,-3.57006 1.43144,-1.40826 2.591997,-1.46578 3.866155,-0.19163 1.249338,1.24934 1.214911,2.39496 -0.114782,3.8195 -0.96162,1.03022 -2.199316,1.00831 -3.265432,-0.0578 z m 141.703495,-41.5927 c -1.57946,-1.68126 -0.6223,-4.1224 1.61637,-4.1224 1.17631,0 2.55547,1.33273 2.55547,2.46944 0,0.33573 -0.32902,1.02869 -0.73116,1.53993 -0.92764,1.1793 -2.39373,1.22746 -3.44068,0.11303 z M 101.37847,78.785056 c 0,-0.479901 3.90237,-7.619074 4.82922,-8.834794 1.25844,-1.650651 3.51275,-3.2947 4.51769,-3.2947 0.42588,0 1.05266,0.307547 1.39283,0.683437 0.53972,0.596379 0.56285,0.852063 0.18161,2.007232 -0.49024,1.485444 -6.01929,7.447106 -8.1803,8.82034 -1.22328,0.777349 -2.74105,1.119815 -2.74105,0.618485 z"
       id="path1" /></g></svg>
